<svg xmlns="http://www.w3.org/2000/svg" viewBox="0 0 64 64">
  <rect width="64" height="64" rx="14" fill="#0a3d62"/>
  <path d="M6 38c4-2 8-2 12 0s8 2 12 0 8-2 12 0 8 2 12 0v8c-4 2-8 2-12 0s-8-2-12 0-8 2-12 0-8-2-12 0z" fill="#fff" opacity="0.95"/>
  <path d="M8 28c4-3 8-3 12 0s8 3 12 0 8-3 12 0 8 3 12 0" fill="none" stroke="#fff" stroke-width="2.5" stroke-linecap="round" opacity="0.7"/>
  <text x="32" y="22" text-anchor="middle" font-family="Arial, Helvetica, sans-serif" font-size="14" font-weight="700" fill="#fff">BC</text>
</svg>
